<svg id="レイヤー_1" data-name="レイヤー 1" xmlns="http://www.w3.org/2000/svg" viewBox="0 0 63.74 63.74"><defs><style>.cls-1{fill:#e4007f;}</style></defs><title>Aiming</title><path class="cls-1" d="M369.45,292.21a29.72,29.72,0,0,1,13.09-13.08v-5.51A34.74,34.74,0,0,0,364,292.21Z" transform="translate(-363.95 -273.62)"/><path class="cls-1" d="M409.1,279.13a29.75,29.75,0,0,1,13.08,13.08h5.51a34.78,34.78,0,0,0-18.59-18.59Z" transform="translate(-363.95 -273.62)"/><path class="cls-1" d="M382.54,331.86a29.72,29.72,0,0,1-13.09-13.08H364a34.74,34.74,0,0,0,18.59,18.59Z" transform="translate(-363.95 -273.62)"/><path class="cls-1" d="M422.18,318.78a29.75,29.75,0,0,1-13.08,13.08v5.51a34.78,34.78,0,0,0,18.59-18.59Z" transform="translate(-363.95 -273.62)"/><circle class="cls-1" cx="31.87" cy="31.87" r="7.03"/></svg>