<svg id="レイヤー_1" data-name="レイヤー 1" xmlns="http://www.w3.org/2000/svg" viewBox="0 0 151.83 151.83"><title>aim</title><rect x="75.42" y="43.22" width="1" height="21.96" style="fill:#fff"/><rect x="75.42" y="86.65" width="1" height="21.96" style="fill:#fff"/><rect x="43.22" y="75.42" width="21.96" height="1" style="fill:#fff"/><rect x="86.65" y="75.42" width="21.96" height="1" style="fill:#fff"/><path d="M429.37,223.73A75.14,75.14,0,0,1,490.68,285h2a77.11,77.11,0,0,0-63.34-63.34Z" transform="translate(-340.88 -221.7)" style="fill:#fff"/><path d="M342.91,285a75.14,75.14,0,0,1,61.31-61.31v-2A77.12,77.12,0,0,0,340.88,285Z" transform="translate(-340.88 -221.7)" style="fill:#fff"/><path d="M490.68,310.19a75.14,75.14,0,0,1-61.31,61.31v2a77.11,77.11,0,0,0,63.34-63.34Z" transform="translate(-340.88 -221.7)" style="fill:#fff"/><path d="M404.22,371.5a75.14,75.14,0,0,1-61.31-61.31h-2a77.12,77.12,0,0,0,63.34,63.34Z" transform="translate(-340.88 -221.7)" style="fill:#fff"/></svg>