<?xml version="1.0" encoding="utf-8"?>
<!-- Generator: Adobe Illustrator 22.0.1, SVG Export Plug-In . SVG Version: 6.00 Build 0)  -->
<svg version="1.1" id="レイヤー_1" xmlns="http://www.w3.org/2000/svg" xmlns:xlink="http://www.w3.org/1999/xlink" x="0px"
	 y="0px" viewBox="0 0 792 612" style="enable-background:new 0 0 792 612;" xml:space="preserve">
<style type="text/css">
	.st0{fill:#FFFFFF;}
</style>
<path class="st0" d="M343.1,339.3c-2.6-4.7-7.6-7.7-12.9-7.7c-2.5,0-5,0.7-7.2,1.9l-33.7,19c-4.1,2.3-5.8,6-7.2,10l-9.9,26.8
	c-0.2,0.4,0.1,0.9,0.5,1.1l25.4,9.6c0.1,0,0.2,0.1,0.3,0.1c0.1,0,0.2,0,0.3-0.1c0.2-0.1,0.4-0.3,0.4-0.5l8.5-23l29.7-16.8
	C344.5,355.6,347.1,346.5,343.1,339.3L343.1,339.3z M343.1,339.3"/>
<path class="st0" d="M520.6,238.8l-6.6-12c-0.2-0.4-0.7-0.6-1.1-0.3L314,338.6c-7.1,4-9.7,13.1-5.7,20.3c2.6,4.7,7.6,7.7,12.9,7.7h0
	c2.5,0,5-0.7,7.2-1.9l15.5-8.7l1,1.9c2,3.6,5.7,5.8,9.7,5.8c1.9,0,3.8-0.5,5.4-1.4c2.6-1.5,4.5-3.9,5.3-6.8c0.8-2.9,0.5-5.9-1-8.6
	l-1-1.9l87-49c0.4-0.2,0.6-0.7,0.3-1.2l-6.6-12l76.1-42.9c0.2-0.1,0.3-0.3,0.4-0.5C520.7,239.2,520.7,239,520.6,238.8L520.6,238.8z
	 M360.3,353.7c-0.3,1.8-1.3,3.2-2.7,4c-2.8,1.6-6.9,0-8.7-3.2l-0.6-1l3.3-1.9l0.1,1.5c0.1,1.7,1.6,3,3.3,2.9c1.7-0.1,3-1.6,2.9-3.4
	l-0.3-4.4l1.2-0.7l0.6,1C360.3,350.1,360.6,352,360.3,353.7L360.3,353.7z M360.3,353.7"/>
<path class="st0" d="M512.3,248.9c-0.2-0.4-0.7-0.6-1.1-0.3l-58.5,33c-0.2,0.1-0.3,0.3-0.4,0.5c-0.1,0.2,0,0.5,0.1,0.6l4.5,8.2
	c0.2,0.3,0.4,0.4,0.7,0.4c0.1,0,0.3,0,0.4-0.1l58.5-33c0.2-0.1,0.3-0.3,0.4-0.5c0.1-0.2,0-0.4-0.1-0.6L512.3,248.9z M512.3,248.9"/>
<path class="st0" d="M471.8,277.1c-1.8-3.3-5.2-5.3-8.9-5.3c-1.7,0-3.4,0.4-4.9,1.3l-66.4,37.4c-0.4,0.2-0.5,0.8-0.3,1.2l9.1,16.5
	c0.1,0.2,0.3,0.3,0.5,0.4c0.1,0,0.2,0,0.2,0c0.1,0,0.3,0,0.4-0.1l66.4-37.4c2.4-1.3,4.1-3.5,4.8-6.2
	C473.5,282.3,473.2,279.5,471.8,277.1L471.8,277.1z M471.8,277.1"/>
</svg>
